<svg width="50" height="50" viewBox="0 0 50 50" fill="none" xmlns="http://www.w3.org/2000/svg">
<rect x="0.5" y="0.5" width="49" height="49" rx="24.5" fill="white"/>
<rect x="0.5" y="0.5" width="49" height="49" rx="24.5" stroke="white"/>
<g clip-path="url(#clip0_1_717)">
<path d="M24.0417 13.222L15.243 21.3177C14.7736 21.772 14.6121 22.7468 15.1316 23.2782C15.6513 23.8097 16.6372 23.8062 17.153 23.2713L23.6074 17.3402V35.7942C23.6074 36.5393 24.2296 37.1435 24.9968 37.1435C25.764 37.1435 26.3862 36.5393 26.3862 35.7942V17.3402L32.8406 23.2713C33.3565 23.8062 34.3798 23.8417 34.8621 23.2782C35.3078 22.7574 35.3272 21.7905 34.7506 21.3177L25.9519 13.222C25.5966 12.8778 24.6623 12.6096 24.0417 13.222Z" fill="black"/>
</g>
<defs>
<clipPath id="clip0_1_717">
<rect width="20.3809" height="24.287" fill="white" transform="translate(14.8095 12.8564)"/>
</clipPath>
</defs>
</svg>
